<svg xmlns="http://www.w3.org/2000/svg" viewBox="0 0 1200 630">
  <!-- Background -->
  <rect width="1200" height="630" fill="#0d1117"/>

  <!-- Accent line -->
  <rect x="0" y="0" width="8" height="630" fill="#58a6ff"/>

  <!-- Wave pattern (decorative) -->
  <g opacity="0.1">
    <path d="M0 500c100 0 100-40 200-40s100 40 200 40 100-40 200-40 100 40 200 40 100-40 200-40 100 40 200 40"
          stroke="#58a6ff" stroke-width="3" fill="none"/>
    <path d="M0 540c100 0 100-40 200-40s100 40 200 40 100-40 200-40 100 40 200 40 100-40 200-40 100 40 200 40"
          stroke="#58a6ff" stroke-width="3" fill="none"/>
    <path d="M0 580c100 0 100-40 200-40s100 40 200 40 100-40 200-40 100 40 200 40 100-40 200-40 100 40 200 40"
          stroke="#58a6ff" stroke-width="3" fill="none"/>
  </g>

  <!-- Name -->
  <text x="80" y="220" font-family="Georgia, serif" font-size="72" font-weight="bold" fill="#e6edf3">
    Piotr de Bever
  </text>

  <!-- Tagline -->
  <text x="80" y="300" font-family="system-ui, sans-serif" font-size="36" fill="#8b949e">
    Inżynier hydrolog
  </text>

  <!-- Services -->
  <text x="80" y="380" font-family="system-ui, sans-serif" font-size="28" fill="#58a6ff">
    Modelowanie hydrauliczne  ·  Analizy GIS  ·  Hydrologia
  </text>

  <!-- URL -->
  <text x="80" y="580" font-family="system-ui, sans-serif" font-size="24" fill="#8b949e">
    debever.pl
  </text>
</svg>
